<svg width="416" height="416" viewBox="0 0 416 416" fill="none" xmlns="http://www.w3.org/2000/svg">
<path fill-rule="evenodd" clip-rule="evenodd" d="M117.219 29.8869C117.219 14.7744 117.8 1.59937 118.575 1.01812C119.156 0.243125 159.65 -0.144376 208.087 0.0493739L296.437 0.630642L297.6 57.7869H355.531V117.656L414.625 118.818L415.206 205.812C415.4 268.393 415.012 293.581 413.462 295.324C411.719 297.456 404.55 298.037 383.431 298.037H355.531V355.968V356.162H355.337H297.406V384.062C297.406 405.181 296.825 412.349 294.694 414.093C292.95 415.643 267.762 416.031 205.181 415.837L118.188 415.256L117.025 356.162H57.1562V298.231L0 297.068V118.818L56.9625 117.656L58.125 58.7556L117.219 57.5931V29.8869ZM297.406 356.162V298.037H355.531V117.849H297.406V57.7869H117.412L116.25 116.881L57.1562 118.043V298.037H117.219V356.162H297.406Z" fill="black"/>
<path d="M178.725 120.162C178.144 121.518 177.563 134.887 177.369 149.806L176.788 176.931L118.662 178.868L117.5 235.831L176.788 236.993L178.725 297.056H234.913L235.881 268.574C236.463 253.074 237.625 239.512 238.4 238.543C239.369 237.768 252.931 236.606 268.431 236.024L296.913 235.056V178.868L236.85 176.931L235.688 117.837H207.594C186.862 117.837 179.306 118.418 178.725 120.162Z" fill="black"/>
</svg>
