<svg width="204" height="186" viewBox="0 0 204 186" fill="none" xmlns="http://www.w3.org/2000/svg">
<path d="M0 8.08471V16.1695H8.46626H16.9325V24.6218V33.0741H25.3988H33.865V41.5264V49.9787H42.3313H50.7239L50.9448 58.578L51.1656 67.2508H59.4847H67.7301V75.8501V84.5229H76.1963H84.6626V92.9752V101.427H76.1963H67.7301V109.88V118.332H59.2638H50.7975V127.152V135.972H42.3313H33.865V144.424V152.876H25.3988H16.9325V161.329V169.781H8.46626H0V177.866V185.95H16.5644H33.0552L33.2761 177.719L33.4969 169.413L41.7423 169.193L49.9877 168.972L50.2086 160.741L50.4294 152.509L59.1166 152.288L67.7301 152.068V143.689V135.237H76.1963H84.6626V126.784V118.332L101.816 118.479L118.896 118.7L119.117 126.931L119.337 135.237H127.73H136.196V143.689V152.141H144.663H153.129V160.594V169.046H161.595H170.061V177.498V185.95H186.994H203.926V177.866V169.854L195.387 169.634L186.773 169.413L186.92 161.182L187.067 152.95L178.38 152.729L169.693 152.509L169.472 144.277L169.252 136.045L161.006 135.825L152.761 135.604L152.54 127.005L152.319 118.332H143.926H135.46V109.88V101.427H126.994H118.528V92.9752V84.5229H126.994H135.387L135.607 75.9236L135.828 67.2508L144.074 67.3243H152.319L152.54 58.872L152.761 50.3462L161.006 50.1257L169.252 49.9052L169.472 41.6734L169.693 33.4416L178.38 33.2211L187.067 33.0006L186.92 24.7688L186.773 16.537L195.387 16.3165L203.926 16.096V8.08471V-9.29534e-05H186.994H170.061V8.4522V16.9045H161.595H153.129V25.3568V33.8091H144.663H136.196V42.2614V50.7137H127.73H119.264V59.166V67.6183H101.963H84.6626V59.166V50.7137H76.1963H67.7301V42.2614V33.8826L59.1166 33.6621L50.4294 33.4416L50.2086 25.2098L49.9877 16.978L41.7423 16.7575L33.4969 16.537L33.2761 8.23171L33.0552 -9.29534e-05H16.5644H0V8.08471Z" fill="#E4E4E4"/>
</svg>
