<svg width="100" height="100" viewBox="0 0 100 100" fill="none" xmlns="http://www.w3.org/2000/svg">
<path d="M0 92.5566H7.44337V100H0V92.5566Z" fill="#D9D9D9"/>
<path d="M0 85.4369H7.44337V92.8803H0V85.4369Z" fill="#D9D9D9"/>
<path d="M0 78.3171H7.44337V85.7605H0V78.3171Z" fill="#D9D9D9"/>
<path d="M7.11974 92.5566H14.5631V100H7.11974V92.5566Z" fill="#D9D9D9"/>
<path d="M14.2395 92.5566H21.6828V100H14.2395V92.5566Z" fill="#D9D9D9"/>
<path d="M21.3592 92.5566H28.8026V100H21.3592V92.5566Z" fill="#D9D9D9"/>
<path d="M21.3592 92.5566H28.8026V100H21.3592V92.5566Z" fill="#D9D9D9"/>
<path d="M21.3592 85.4369H28.8026V92.8803H21.3592V85.4369Z" fill="#D9D9D9"/>
<path d="M28.479 78.3171H35.9223V85.7605H28.479V78.3171Z" fill="#D9D9D9"/>
<path d="M35.5987 71.1974H43.0421V78.6408H35.5987V71.1974Z" fill="#D9D9D9"/>
<path d="M42.7184 64.0777H50.1618V71.521H42.7184V64.0777Z" fill="#D9D9D9"/>
<path d="M49.8382 56.9579H57.2816V64.4013H49.8382V56.9579Z" fill="#D9D9D9"/>
<path d="M56.9579 49.8382H64.4013V57.2816H56.9579V49.8382Z" fill="#D9D9D9"/>
<path d="M64.0777 42.7184H71.521V50.1618H64.0777V42.7184Z" fill="#D9D9D9"/>
<path d="M71.1974 35.5987H78.6408V43.0421H71.1974V35.5987Z" fill="#D9D9D9"/>
<path d="M78.3171 28.479H85.7605V35.9223H78.3171V28.479Z" fill="#D9D9D9"/>
<path d="M0 71.1974H7.44337V78.6408H0V71.1974Z" fill="#D9D9D9"/>
<path d="M7.11974 64.0777H14.5631V71.521H7.11974V64.0777Z" fill="#D9D9D9"/>
<path d="M14.2395 64.0777H21.6828V71.521H14.2395V64.0777Z" fill="#D9D9D9"/>
<path d="M14.2395 56.9579H21.6828V64.4013H14.2395V56.9579Z" fill="#D9D9D9"/>
<path d="M14.2395 56.9579H21.6828V64.4013H14.2395V56.9579Z" fill="#D9D9D9"/>
<path d="M21.3592 49.8382H28.8026V57.2816H21.3592V49.8382Z" fill="#D9D9D9"/>
<path d="M28.479 42.7184H35.9223V50.1618H28.479V42.7184Z" fill="#D9D9D9"/>
<path d="M35.5987 35.5987H43.0421V43.0421H35.5987V35.5987Z" fill="#D9D9D9"/>
<path d="M42.7184 28.479H50.1618V35.9223H42.7184V28.479Z" fill="#D9D9D9"/>
<path d="M49.8382 21.3592H57.2816V28.8026H49.8382V21.3592Z" fill="#D9D9D9"/>
<path d="M56.9579 14.2395H64.4013V21.6828H56.9579V14.2395Z" fill="#D9D9D9"/>
<path d="M64.0777 7.11974H71.521V14.5631H64.0777V7.11974Z" fill="#D9D9D9"/>
<path d="M71.1974 0H78.6408V7.44337H71.1974V0Z" fill="#D9D9D9"/>
<path d="M78.3171 7.11974H85.7605V14.5631H78.3171V7.11974Z" fill="#D9D9D9"/>
<path d="M78.3171 7.11974H85.7605V14.5631H78.3171V7.11974Z" fill="#D9D9D9"/>
<path d="M78.3171 14.2395H85.7605V21.6828H78.3171V14.2395Z" fill="#D9D9D9"/>
<path d="M85.4369 14.2395H92.8803V21.6828H85.4369V14.2395Z" fill="#D9D9D9"/>
<path d="M21.3592 56.9579H28.8026V64.4013H21.3592V56.9579Z" fill="#D9D9D9"/>
<path d="M28.479 49.8382H35.9223V57.2816H28.479V49.8382Z" fill="#D9D9D9"/>
<path d="M35.5987 42.7184H43.0421V50.1618H35.5987V42.7184Z" fill="#D9D9D9"/>
<path d="M42.7184 35.5987H50.1618V43.0421H42.7184V35.5987Z" fill="#D9D9D9"/>
<path d="M49.8382 28.479H57.2816V35.9223H49.8382V28.479Z" fill="#D9D9D9"/>
<path d="M56.9579 21.3592H64.4013V28.8026H56.9579V21.3592Z" fill="#D9D9D9"/>
<path d="M64.0777 14.2395H71.521V21.6828H64.0777V14.2395Z" fill="#D9D9D9"/>
<path d="M71.1974 7.11974H78.6408V14.5631H71.1974V7.11974Z" fill="#D9D9D9"/>
<path d="M64.0777 28.479H71.521V35.9223H64.0777V28.479Z" fill="#D9D9D9"/>
<path d="M64.0777 21.3592H71.521V28.8026H64.0777V21.3592Z" fill="#D9D9D9"/>
<path d="M71.1974 28.479H78.6408V35.9223H71.1974V28.479Z" fill="#D9D9D9"/>
<path d="M71.1974 7.11974H78.6408V14.5631H71.1974V7.11974Z" fill="#D9D9D9"/>
<path d="M71.1974 7.11974H78.6408V14.5631H71.1974V7.11974Z" fill="#D9D9D9"/>
<path d="M28.479 85.4369H35.9223V92.8803H28.479V85.4369Z" fill="#D9D9D9"/>
<path d="M55.9871 92.5566H63.4304V100H55.9871V92.5566Z" fill="#D9D9D9"/>
<path d="M49.8382 92.5566H57.2816V100H49.8382V92.5566Z" fill="#D9D9D9"/>
<path d="M63.1068 92.5566H70.5502V100H63.1068V92.5566Z" fill="#D9D9D9"/>
<path d="M70.2265 92.5566H77.6699V100H70.2265V92.5566Z" fill="#D9D9D9"/>
<path d="M77.3463 92.5566H84.7896V100H77.3463V92.5566Z" fill="#D9D9D9"/>
<path d="M84.466 92.5566H91.9094V100H84.466V92.5566Z" fill="#D9D9D9"/>
<path d="M91.5858 92.5566H99.0291V100H91.5858V92.5566Z" fill="#D9D9D9"/>
<path d="M35.5987 78.3171H43.0421V85.7605H35.5987V78.3171Z" fill="#D9D9D9"/>
<path d="M42.7184 71.1974H50.1618V78.6408H42.7184V71.1974Z" fill="#D9D9D9"/>
<path d="M49.8382 64.0777H57.2816V71.521H49.8382V64.0777Z" fill="#D9D9D9"/>
<path d="M56.9579 56.9579H64.4013V64.4013H56.9579V56.9579Z" fill="#D9D9D9"/>
<path d="M64.0777 49.8382H71.521V57.2816H64.0777V49.8382Z" fill="#D9D9D9"/>
<path d="M71.1974 42.7184H78.6408V50.1618H71.1974V42.7184Z" fill="#D9D9D9"/>
<path d="M78.3171 35.5987H85.7605V43.0421H78.3171V35.5987Z" fill="#D9D9D9"/>
<path d="M85.4369 28.479H92.8803V35.9223H85.4369V28.479Z" fill="#D9D9D9"/>
<path d="M92.5566 21.3592H100V28.8026H92.5566V21.3592Z" fill="#D9D9D9"/>
<path d="M85.4369 21.3592H92.8803V28.8026H85.4369V21.3592Z" fill="#D9D9D9"/>
<path d="M7.11974 71.1974H14.5631V78.6408H7.11974V71.1974Z" fill="#D9D9D9"/>
</svg>
