<svg width="1308" height="872" viewBox="0 0 1308 872" fill="none" xmlns="http://www.w3.org/2000/svg">
<line x1="106.08" y1="42.8113" x2="1141.08" y2="829.811" stroke="#6B7280" stroke-width="106"/>
<path fill-rule="evenodd" clip-rule="evenodd" d="M994.436 652.743L870.964 558.857V652.743H994.436ZM978.949 550.516H1085.88V631.823L978.949 550.516ZM763.507 386.697L639.308 292.258H763.507V386.697ZM542.938 309.431L763.507 477.148V496.713H542.938V309.431ZM435.482 137.271V136.227H863.611L867.57 115.782C869.267 105.021 870.964 81.8854 870.964 64.6682V34H435.482V136.227H434.109L435.482 137.271ZM315.155 136.227L435.482 227.722V238.454H220.569V136.227H315.155ZM1085.88 238.454H870.964V136.227H1085.88V237.916L1196.16 241.145L1195.03 278.807C1194.96 281.213 1194.9 283.648 1194.83 286.083C1194.33 304.346 1193.83 322.61 1193.33 328.307C1193.33 340.144 1191.64 340.682 1139.61 340.682H1085.88V238.454ZM111.416 242.221C109.153 243.835 107.457 266.97 107.457 293.334V340.682H214.913V238.454H165.144C137.431 238.454 113.112 240.068 111.416 242.221ZM0 448.289H107.457V496.174C107.457 523.076 109.719 545.674 111.981 547.288C114.809 548.902 139.694 548.364 167.972 546.75L218.872 543.522L217.741 448.289H107.457V346.062H0V448.289ZM1303.62 445.599L1198.99 448.827V346.062H1307.01L1303.62 445.599ZM1085.88 545.136H1197.86L1196.73 497.789L1196.16 450.979L1085.88 447.751V545.136ZM435.482 652.743H220.569V550.516H435.482V652.743ZM872.095 754.971H435.482V658.124H868.136L869.833 706.547L872.095 754.971Z" fill="#6B7280"/>
</svg>
