<svg width="1308" height="721" viewBox="0 0 1308 721" fill="none" xmlns="http://www.w3.org/2000/svg">
<path d="M435.482 102.227H220.569V204.454H435.482V102.227H863.611L867.57 81.7818C869.267 71.021 870.964 47.8854 870.964 30.6682V0H435.482V102.227Z" fill="#6B7280"/>
<path d="M870.964 204.454H1085.88V306.682H1139.61C1191.64 306.682 1193.33 306.144 1193.33 294.307C1193.9 287.85 1194.46 265.253 1195.03 244.807L1196.16 207.145L1085.88 203.916V102.227H870.964V204.454Z" fill="#6B7280"/>
<path d="M111.416 208.221C109.153 209.835 107.457 232.97 107.457 259.334V306.682H214.913V204.454H165.144C137.431 204.454 113.112 206.068 111.416 208.221Z" fill="#6B7280"/>
<path d="M542.938 462.713H763.507V258.258H542.938V462.713Z" fill="#6B7280"/>
<path d="M0 414.289H107.457V462.174C107.457 489.076 109.719 511.674 111.981 513.288C114.809 514.902 139.694 514.364 167.972 512.75L218.872 509.522L217.741 414.289H107.457V312.062H0V414.289Z" fill="#6B7280"/>
<path d="M1198.99 414.827L1303.62 411.599L1307.01 312.062H1198.99V414.827Z" fill="#6B7280"/>
<path d="M1085.88 511.136H1197.86L1196.73 463.789L1196.16 416.979L1085.88 413.751V511.136Z" fill="#6B7280"/>
<path d="M220.569 618.743H435.482V516.516H220.569V618.743Z" fill="#6B7280"/>
<path d="M870.964 618.743H1085.88V516.516H870.964V618.743Z" fill="#6B7280"/>
<path d="M435.482 720.971H872.095L869.833 672.547L868.136 624.124H435.482V720.971Z" fill="#6B7280"/>
</svg>
