<svg width="368" height="368" viewBox="0 0 368 368" fill="none" xmlns="http://www.w3.org/2000/svg">
<path d="M147.798 12.4201V24.8401H135.378H122.958V49.6801V74.5201H73.899H24.84V86.3191V98.1181H12.42H0V122.337V146.556H12.42H24.84V158.976V171.396H37.26H49.68V257.094V342.792H62.1H74.52V355.212V367.632H183.816H293.112V355.212V342.792H305.532H317.952V257.094V171.396H330.372H342.792V158.976V146.556H355.212H367.632V122.337V98.1181H355.212H342.792V86.3191V74.5201H293.733H244.674V49.6801V24.8401H232.254H219.834V12.4201V5.40018e-05H183.816H147.798V12.4201ZM196.236 36.6391V48.3139L208.408 48.6865L220.455 49.0591L220.828 61.7275L221.2 74.5201H183.816H146.432L146.804 61.7275L147.177 49.0591L159.349 48.6865L171.396 48.3139V36.6391V24.8401H183.816H196.236V36.6391ZM318.946 122.585L318.573 147.177H183.816H49.059L48.6864 122.585L48.438 98.1181H183.816H319.194L318.946 122.585ZM269.514 183.816V196.236H281.934H294.354L294.106 257.342L293.733 318.573L281.686 318.946L269.514 319.318V330.993V342.792H183.816H98.118V330.993V319.318L86.0706 318.946L73.899 318.573L73.5264 257.342L73.278 196.236H85.698H98.118V183.816V171.396H183.816H269.514V183.816Z" fill="#E4E4E4"/>
<path d="M122.958 257.094V317.952H134.757H146.556V257.094V196.236H134.757H122.958V257.094Z" fill="#E4E4E4"/>
<path d="M221.076 257.094V317.952H232.875H244.674V257.094V196.236H232.875H221.076V257.094Z" fill="#E4E4E4"/>
</svg>
